<?xml version="1.0" standalone="no"?><!DOCTYPE svg PUBLIC "-//W3C//DTD SVG 1.1//EN" "http://www.w3.org/Graphics/SVG/1.1/DTD/svg11.dtd"><svg id="svg" version="1.1" width="1380" height="1380" xmlns="http://www.w3.org/2000/svg"><path d="M642.000 254.893 C 595.653 263.224,539.529 284.710,506.150 306.901 C 472.259 329.431,445.505 369.281,439.981 405.460 C 438.640 414.245,438.104 483.615,438.457 603.000 L 439.000 787.000 460.500 787.568 L 482.000 788.135 482.000 602.278 C 482.000 422.688,482.134 415.989,485.961 403.599 C 492.586 382.147,511.805 357.636,535.000 341.056 C 550.393 330.052,562.220 324.207,587.000 315.353 C 664.960 287.500,722.179 288.060,800.649 317.445 C 832.547 329.389,845.874 337.614,866.151 357.868 C 879.413 371.115,885.081 378.604,891.151 390.895 L 899.000 406.790 899.539 597.395 L 900.079 788.000 922.087 788.000 L 944.096 788.000 943.541 593.500 L 942.987 399.000 938.193 386.155 C 927.193 356.677,904.544 327.154,878.887 308.845 C 871.978 303.915,854.991 294.459,841.138 287.833 C 772.482 254.991,704.245 243.703,642.000 254.893 M491.809 491.883 L 485.926 497.766 486.463 650.057 L 487.000 802.347 492.612 807.174 C 497.615 811.477,500.106 811.999,515.612 811.990 C 530.956 811.981,533.705 811.416,539.000 807.181 L 545.000 802.383 546.000 718.857 C 546.698 660.523,547.666 635.109,549.208 634.596 C 551.881 633.707,554.000 651.702,554.000 675.293 C 554.000 684.482,554.804 692.000,555.786 692.000 C 558.571 692.000,559.987 686.591,560.148 675.336 C 560.316 663.623,563.341 644.187,563.780 652.000 C 564.264 660.606,567.935 652.159,567.969 642.361 C 567.997 634.567,568.438 633.784,572.473 634.361 C 577.418 635.067,579.266 640.932,581.668 663.541 C 582.400 670.439,583.900 676.289,585.000 676.541 C 586.100 676.793,587.712 672.050,588.583 666.000 C 589.454 659.950,590.911 650.500,591.821 645.000 L 593.475 635.000 593.765 647.000 C 593.924 653.600,594.602 661.044,595.272 663.542 C 597.108 670.394,601.963 665.253,602.154 656.255 L 602.307 649.000 604.944 657.000 L 607.581 665.000 607.790 651.900 C 607.906 644.658,609.073 637.727,610.400 636.400 C 613.737 633.063,618.000 633.399,618.000 637.000 C 618.000 638.650,618.807 640.000,619.793 640.000 C 620.780 640.000,622.688 647.754,624.033 657.231 C 626.495 674.578,629.905 677.098,629.969 661.618 C 629.986 657.558,630.900 653.680,632.000 653.000 C 633.178 652.272,634.013 654.486,634.031 658.382 C 634.047 662.022,634.934 666.350,636.000 668.000 C 637.446 670.238,637.947 669.133,637.969 663.653 C 637.986 659.611,639.078 651.636,640.395 645.928 C 643.325 633.237,645.649 637.053,645.859 654.900 C 646.051 671.131,649.509 666.983,651.231 648.456 C 652.550 634.264,652.677 634.000,658.193 634.000 C 662.982 634.000,664.120 635.107,665.895 641.500 C 667.040 645.625,667.983 650.128,667.989 651.507 C 667.995 652.886,669.594 656.988,671.542 660.623 C 674.887 666.864,675.281 667.044,678.636 663.858 C 680.830 661.776,682.821 655.608,683.841 647.742 C 685.408 635.658,685.514 635.464,685.904 644.000 C 686.131 648.950,686.772 651.869,687.329 650.488 C 687.886 649.106,689.165 648.484,690.171 649.106 C 691.177 649.727,692.000 646.523,692.000 641.985 C 692.000 634.164,692.287 633.767,697.500 634.367 C 702.676 634.963,703.059 635.698,704.000 646.844 C 705.237 661.496,708.676 663.259,711.230 650.552 C 713.119 641.156,713.197 641.392,715.996 665.000 L 718.843 689.000 720.179 677.000 C 720.914 670.400,722.468 662.750,723.631 660.000 L 725.746 655.000 726.112 661.000 C 726.314 664.300,727.653 659.800,729.089 651.000 C 730.525 642.200,731.767 634.775,731.850 634.500 C 731.932 634.225,734.513 634.000,737.585 634.000 C 742.517 634.000,743.453 635.056,745.585 643.029 C 746.913 647.994,748.063 658.119,748.141 665.529 C 748.298 680.594,751.464 677.743,752.059 662.000 C 752.246 657.050,753.040 650.750,753.824 648.000 C 755.119 643.454,755.371 643.726,756.602 651.000 C 757.347 655.400,758.101 663.950,758.278 670.000 C 758.455 676.050,758.974 678.525,759.433 675.500 C 759.891 672.475,761.059 670.000,762.028 670.000 C 762.998 670.000,764.096 665.275,764.470 659.500 L 765.148 649.000 766.898 657.927 C 768.292 665.038,768.960 666.056,770.183 662.927 C 771.028 660.767,771.794 655.400,771.887 651.000 C 772.178 637.129,773.765 634.000,780.509 634.000 L 786.551 634.000 785.334 623.500 C 784.665 617.725,783.508 604.225,782.763 593.500 C 782.019 582.775,780.727 574.000,779.892 574.000 C 778.008 574.000,775.870 589.134,774.243 613.978 C 773.167 630.413,772.496 633.052,769.240 633.675 C 767.171 634.070,764.710 633.180,763.770 631.697 C 762.505 629.700,762.053 629.649,762.031 631.500 C 762.014 632.875,760.200 634.000,758.000 634.000 C 754.565 634.000,753.996 632.658,753.973 624.500 C 753.941 613.392,752.260 606.000,749.767 606.000 C 748.795 606.000,747.859 609.375,747.686 613.500 C 747.397 620.383,747.259 620.177,746.000 611.000 L 744.628 601.000 744.064 609.000 L 743.499 617.000 741.918 609.000 C 741.048 604.600,739.074 596.050,737.532 590.000 L 734.728 579.000 733.312 597.000 C 732.533 606.900,731.399 619.170,730.792 624.266 C 729.693 633.502,729.663 633.533,721.844 633.641 C 714.562 633.742,714.000 633.348,714.000 628.154 C 714.000 617.694,711.476 604.088,709.734 605.164 C 708.781 605.754,707.865 610.458,707.700 615.618 L 707.399 625.000 706.092 616.000 C 704.881 607.666,704.704 607.444,703.692 613.000 C 702.882 617.448,702.522 616.284,702.300 608.500 C 702.135 602.725,701.424 598.000,700.720 598.000 C 697.607 598.000,694.122 605.635,694.064 612.584 C 694.024 617.333,692.505 621.772,690.000 624.461 L 686.000 628.754 686.000 624.259 C 686.000 621.772,685.107 620.316,684.000 621.000 C 682.900 621.680,682.000 624.883,682.000 628.118 C 682.000 632.513,681.062 634.000,678.291 634.000 C 675.645 634.000,673.675 631.279,671.415 624.500 L 668.247 615.000 667.860 623.000 L 667.473 631.000 666.000 624.000 C 665.134 619.887,664.360 618.649,664.123 621.000 L 663.719 625.000 662.000 621.000 C 661.055 618.800,660.130 617.900,659.944 619.000 C 659.759 620.100,658.484 616.950,657.110 612.000 L 654.613 603.000 653.105 616.208 C 650.451 639.451,644.218 639.986,643.890 617.000 C 643.592 596.127,640.734 595.224,639.148 615.500 C 638.351 625.675,636.996 634.000,636.137 634.000 C 635.277 634.000,633.947 625.675,633.181 615.500 C 631.499 593.177,628.000 587.165,628.000 606.600 C 628.000 614.200,627.134 620.000,626.000 620.000 C 624.900 620.000,623.910 621.575,623.801 623.500 C 623.410 630.363,620.401 617.092,620.199 607.618 C 620.090 602.458,619.174 597.725,618.164 597.101 C 616.230 595.906,610.000 620.168,610.000 628.895 C 610.000 632.667,608.955 634.000,606.000 634.000 C 602.581 634.000,601.980 632.620,601.859 624.500 C 601.782 619.275,601.031 613.242,600.191 611.094 C 598.901 607.796,598.427 608.264,597.150 614.094 L 595.638 621.000 592.971 614.000 C 591.504 610.150,590.154 603.850,589.970 600.000 C 589.657 593.455,589.389 593.779,585.845 605.000 C 583.760 611.600,581.941 621.050,581.803 626.000 C 581.637 631.935,580.632 627.849,578.851 614.000 C 577.365 602.450,575.365 589.400,574.405 585.000 C 572.771 577.508,572.572 578.079,571.273 594.000 C 570.509 603.350,569.367 616.224,568.733 622.608 L 567.582 634.217 560.291 633.608 L 553.000 633.000 551.427 611.000 C 550.562 598.900,548.987 586.236,547.927 582.858 C 546.867 579.480,546.000 558.936,546.000 537.204 L 546.000 497.692 540.154 491.846 C 534.544 486.236,533.568 486.000,516.000 486.000 C 498.406 486.000,497.463 486.229,491.809 491.883 M842.612 490.824 L 837.000 495.649 836.256 556.324 C 835.847 589.696,834.812 614.750,833.956 612.000 C 832.402 607.011,832.398 607.012,832.199 612.745 C 832.037 617.427,831.483 618.061,829.207 616.171 C 827.426 614.694,825.895 607.310,824.985 595.814 C 824.200 585.893,823.114 578.219,822.572 578.761 C 822.030 579.303,820.813 586.646,819.868 595.079 C 818.922 603.512,817.277 611.462,816.212 612.745 C 815.146 614.028,813.988 619.103,813.638 624.022 C 813.166 630.639,812.089 633.138,809.500 633.629 C 806.562 634.187,805.995 632.745,805.969 624.647 C 805.953 619.341,805.066 613.650,804.000 612.000 C 802.634 609.886,802.052 612.691,802.031 621.500 C 802.008 630.801,801.291 634.000,799.230 634.000 C 797.374 634.000,795.944 630.208,794.892 622.500 C 794.030 616.175,792.980 612.800,792.559 615.000 C 792.138 617.200,790.875 620.863,789.752 623.140 C 788.628 625.417,787.572 631.267,787.404 636.140 C 786.930 649.884,788.200 671.286,789.325 668.500 C 791.126 664.035,797.981 665.580,798.199 670.500 C 798.390 674.796,798.467 674.773,799.894 670.000 L 801.389 665.000 802.422 670.000 C 803.005 672.821,803.660 669.771,803.924 663.000 L 804.393 651.000 806.823 660.000 C 809.000 668.063,809.384 668.479,810.504 664.000 C 811.192 661.250,812.376 653.375,813.136 646.500 L 814.517 634.000 821.258 634.000 C 827.853 634.000,828.000 634.185,828.022 642.500 C 828.052 654.238,830.174 666.000,832.262 666.000 C 833.218 666.000,834.197 664.425,834.439 662.500 C 834.680 660.575,835.355 691.254,835.939 730.676 L 837.000 802.351 842.612 807.176 C 847.632 811.492,850.095 812.000,866.000 812.000 C 881.908 812.000,884.367 811.493,889.388 807.174 L 895.000 802.347 895.537 650.057 L 896.074 497.766 890.191 491.883 C 884.550 486.242,883.566 486.000,866.265 486.000 C 850.080 486.000,847.646 486.496,842.612 490.824 M424.000 516.255 C 390.173 540.352,366.017 577.027,357.824 616.727 C 353.233 638.971,353.043 653.987,357.059 677.020 C 362.696 709.343,377.955 738.399,401.755 762.130 C 414.928 775.265,431.197 787.470,433.055 785.612 C 433.590 785.077,433.797 722.810,433.514 647.241 L 433.000 509.844 424.000 516.255 M948.000 648.983 L 948.000 788.192 957.500 781.691 C 988.211 760.675,1013.816 724.428,1022.976 689.000 C 1033.075 649.944,1026.292 601.510,1005.847 566.672 C 998.355 553.907,964.859 519.148,954.498 513.387 L 948.000 509.774 948.000 648.983 M499.953 920.938 C 469.584 930.736,465.570 968.706,493.428 982.651 C 498.693 985.287,510.284 989.845,519.187 992.782 C 541.034 999.987,549.843 1008.961,546.834 1020.949 C 543.052 1036.019,521.145 1040.217,493.086 1031.248 C 484.333 1028.451,476.864 1026.469,476.488 1026.846 C 476.112 1027.222,475.623 1031.399,475.402 1036.129 C 475.003 1044.659,475.072 1044.751,484.000 1047.641 C 489.400 1049.388,501.799 1050.643,515.000 1050.777 C 534.285 1050.972,538.171 1050.423,546.486 1046.328 C 559.247 1040.044,564.618 1032.082,565.509 1018.131 C 566.853 997.070,557.171 987.191,524.000 975.780 C 503.113 968.596,494.000 961.682,494.000 953.022 C 494.000 935.092,516.001 928.989,545.000 938.877 C 552.700 941.502,559.100 943.504,559.222 943.325 C 559.344 943.146,560.023 939.211,560.732 934.581 L 562.021 926.161 551.511 922.930 C 536.518 918.320,511.108 917.339,499.953 920.938 M643.606 920.670 C 610.146 930.137,591.288 966.702,600.772 1003.722 C 609.017 1035.906,635.126 1054.156,668.901 1051.342 C 676.655 1050.696,686.375 1049.079,690.500 1047.748 C 696.621 1045.774,697.994 1044.379,697.969 1040.164 C 697.911 1030.355,695.814 1029.361,683.023 1033.079 C 657.498 1040.500,634.156 1032.558,624.110 1013.036 C 619.738 1004.540,619.000 1000.493,619.000 985.000 C 619.000 969.507,619.738 965.460,624.110 956.964 C 634.399 936.969,659.213 928.946,684.416 937.464 C 696.955 941.702,698.000 941.141,698.000 930.172 C 698.000 925.582,696.758 924.268,690.500 922.235 C 678.880 918.461,654.311 917.641,643.606 920.670 M845.092 920.127 C 825.960 924.917,809.703 940.928,802.922 961.660 C 798.065 976.508,799.602 1003.391,806.081 1016.916 C 812.092 1029.463,823.745 1041.177,835.702 1046.692 C 849.303 1052.964,877.248 1052.771,890.345 1046.313 C 903.217 1039.966,913.589 1029.332,919.779 1016.133 C 924.317 1006.457,925.000 1002.383,925.000 985.000 C 925.000 967.617,924.317 963.543,919.779 953.867 C 913.666 940.833,903.013 929.816,890.814 923.910 C 880.721 919.024,857.254 917.083,845.092 920.127 M973.901 920.724 C 954.189 926.040,936.982 942.261,931.051 961.116 C 926.175 976.619,927.532 1003.249,933.873 1016.472 C 943.639 1036.842,962.419 1049.692,985.079 1051.510 C 998.840 1052.615,1019.491 1049.400,1028.474 1044.755 L 1034.000 1041.897 1034.000 1012.949 L 1034.000 984.000 1015.000 984.000 L 996.000 984.000 996.000 992.000 L 996.000 1000.000 1006.000 1000.000 L 1016.000 1000.000 1016.000 1016.750 L 1016.000 1033.500 1009.750 1034.750 C 982.386 1040.223,958.824 1029.633,950.525 1008.132 C 945.830 995.968,945.873 973.920,950.617 961.627 C 954.951 950.395,966.841 939.065,977.358 936.144 C 987.943 933.205,1003.104 933.475,1016.049 936.833 C 1028.100 939.959,1029.915 939.034,1029.969 929.743 C 1029.997 924.939,1028.889 924.207,1017.089 921.243 C 1002.019 917.458,986.695 917.273,973.901 920.724 M1080.347 920.838 C 1051.890 930.147,1036.634 955.147,1038.423 989.538 C 1039.854 1017.067,1051.933 1036.639,1073.702 1046.702 C 1087.134 1052.911,1115.116 1052.678,1128.345 1046.248 C 1141.168 1040.014,1151.569 1029.373,1157.779 1016.133 C 1162.317 1006.457,1163.000 1002.383,1163.000 985.000 C 1163.000 967.617,1162.317 963.543,1157.779 953.867 C 1151.533 940.551,1141.062 929.880,1128.399 923.928 C 1116.549 918.357,1092.630 916.819,1080.347 920.838 M358.610 923.294 C 358.090 924.650,358.013 945.838,358.439 970.380 C 359.276 1018.525,360.080 1022.657,371.178 1035.846 C 388.332 1056.233,430.525 1057.475,449.838 1038.162 C 462.252 1025.748,463.901 1017.597,464.032 968.000 C 464.094 944.350,464.112 923.875,464.073 922.500 C 464.027 920.939,461.067 920.000,456.193 920.000 L 448.386 920.000 447.693 964.558 C 447.025 1007.482,446.817 1009.472,442.000 1018.822 C 435.060 1032.295,427.025 1036.440,409.564 1035.557 C 393.836 1034.760,387.065 1030.805,381.000 1018.871 C 377.424 1011.835,376.932 1006.279,376.363 966.500 C 376.012 942.025,375.112 921.905,374.363 921.788 C 366.629 920.585,359.384 921.278,358.610 923.294 M735.500 921.460 C 732.257 922.232,732.000 926.985,732.000 986.147 L 732.000 1050.000 771.000 1050.000 L 810.000 1050.000 810.000 1042.000 L 810.000 1034.000 780.031 1034.000 L 750.062 1034.000 749.531 977.542 L 749.000 921.084 744.000 920.855 C 741.250 920.729,737.425 921.001,735.500 921.460 M229.228 980.500 C 224.988 1012.675,221.065 1041.475,220.509 1044.500 C 219.528 1049.846,219.756 1050.000,228.659 1050.000 C 239.461 1050.000,237.683 1055.828,245.107 996.071 C 247.903 973.560,250.411 954.922,250.680 954.653 C 250.950 954.384,258.782 968.504,268.085 986.032 C 277.388 1003.559,285.450 1017.919,286.000 1017.943 C 286.550 1017.966,294.650 1003.364,304.000 985.493 C 316.984 960.677,321.150 954.181,321.635 958.000 C 321.984 960.750,324.698 982.350,327.665 1006.000 L 333.059 1049.000 342.571 1049.611 L 352.083 1050.223 350.872 1042.611 C 350.206 1038.425,346.327 1009.800,342.252 979.000 L 334.842 923.000 326.855 922.406 L 318.869 921.812 302.934 952.869 C 294.170 969.949,286.550 983.933,286.000 983.943 C 285.450 983.953,277.800 970.034,269.000 953.011 L 253.000 922.061 244.969 922.030 L 236.937 922.000 229.228 980.500 M572.000 986.000 L 572.000 1050.000 581.000 1050.000 L 590.000 1050.000 590.000 986.000 L 590.000 922.000 581.000 922.000 L 572.000 922.000 572.000 986.000 M884.000 940.084 C 902.408 949.358,911.381 973.081,906.101 998.513 C 901.348 1021.407,885.858 1034.250,863.000 1034.250 C 841.011 1034.250,826.920 1023.659,820.772 1002.511 C 814.460 980.800,821.043 955.512,836.116 943.563 C 848.011 934.134,869.143 932.598,884.000 940.084 M1122.527 940.333 C 1138.072 948.131,1147.965 971.071,1145.099 992.676 C 1141.431 1020.330,1126.843 1034.000,1101.000 1034.000 C 1078.629 1034.000,1064.964 1023.810,1058.772 1002.511 C 1052.460 980.800,1059.043 955.512,1074.116 943.563 C 1086.180 933.999,1107.116 932.602,1122.527 940.333 M321.000 1111.748 C 326.934 1113.009,327.012 1113.198,328.133 1129.012 L 329.266 1145.000 329.633 1128.633 C 329.997 1112.421,330.052 1112.258,335.500 1111.433 C 338.525 1110.974,335.150 1110.571,328.000 1110.536 C 319.455 1110.495,317.056 1110.910,321.000 1111.748 M423.000 1112.309 C 409.024 1119.953,411.591 1139.311,427.097 1143.203 C 434.735 1145.120,442.000 1141.142,442.000 1135.043 C 442.000 1130.809,441.118 1130.044,436.500 1130.272 C 431.784 1130.506,431.642 1130.668,435.500 1131.411 C 440.721 1132.417,441.651 1138.938,436.836 1140.786 C 431.208 1142.946,426.651 1142.087,421.270 1137.855 C 407.239 1126.818,422.300 1106.221,438.631 1114.110 C 442.851 1116.149,442.868 1116.115,439.118 1113.110 C 434.611 1109.500,428.676 1109.205,423.000 1112.309 M470.407 1126.500 L 470.000 1144.000 479.500 1143.651 L 489.000 1143.301 480.579 1142.539 L 472.158 1141.778 471.486 1125.389 L 470.814 1109.000 470.407 1126.500 M512.710 1127.000 C 512.704 1136.900,513.042 1141.202,513.461 1136.560 C 513.881 1131.919,513.886 1123.819,513.473 1118.560 C 513.059 1113.302,512.716 1117.100,512.710 1127.000 M542.360 1127.100 L 542.721 1145.000 543.860 1130.145 L 545.000 1115.289 553.651 1126.525 C 567.871 1144.994,568.059 1144.983,567.603 1125.745 L 567.205 1109.000 566.515 1123.499 L 565.825 1137.997 555.602 1125.499 C 549.979 1118.624,544.618 1112.145,543.689 1111.100 C 542.758 1110.052,542.162 1117.228,542.360 1127.100 M596.000 1127.000 L 596.000 1144.000 604.500 1143.664 L 613.000 1143.328 605.500 1142.543 C 598.471 1141.808,598.000 1141.335,598.000 1135.012 C 598.000 1129.188,598.752 1128.152,603.500 1127.433 L 609.000 1126.599 603.500 1126.300 C 598.625 1126.034,598.000 1125.219,598.000 1119.127 C 598.000 1112.871,598.584 1112.181,604.500 1111.447 C 610.900 1110.653,610.884 1110.635,603.500 1110.320 L 596.000 1110.000 596.000 1127.000 M680.039 1112.488 C 670.239 1117.607,667.969 1130.180,675.363 1138.387 C 682.723 1146.554,700.000 1144.214,700.000 1135.050 C 700.000 1130.624,699.196 1130.037,693.500 1130.300 C 687.450 1130.579,687.381 1130.657,692.500 1131.433 C 699.348 1132.470,699.670 1137.325,693.090 1140.323 C 686.266 1143.432,677.044 1139.348,673.934 1131.840 C 669.242 1120.513,681.754 1109.431,694.298 1113.804 C 698.159 1115.150,700.070 1115.270,698.892 1114.092 C 695.443 1110.643,685.234 1109.775,680.039 1112.488 M730.093 1115.600 C 726.364 1119.329,724.000 1123.751,724.000 1127.000 C 724.000 1130.249,726.364 1134.671,730.093 1138.400 C 735.360 1143.668,737.189 1144.333,743.593 1143.307 C 752.614 1141.863,758.000 1135.767,758.000 1127.000 C 758.000 1118.233,752.614 1112.137,743.593 1110.693 C 737.189 1109.667,735.360 1110.332,730.093 1115.600 M784.000 1127.000 L 784.000 1144.000 792.500 1143.664 L 801.000 1143.328 793.500 1142.543 C 786.471 1141.808,786.000 1141.335,786.000 1135.012 C 786.000 1129.188,786.752 1128.152,791.500 1127.433 L 797.000 1126.599 791.500 1126.300 C 786.625 1126.034,786.000 1125.219,786.000 1119.127 C 786.000 1112.871,786.584 1112.181,792.500 1111.447 C 798.900 1110.653,798.884 1110.635,791.500 1110.320 L 784.000 1110.000 784.000 1127.000 M828.400 1112.400 C 827.080 1113.720,826.000 1116.942,826.000 1119.561 C 826.000 1123.258,827.787 1125.024,834.000 1127.464 C 842.165 1130.671,844.174 1135.026,839.600 1139.600 C 835.880 1143.320,830.539 1142.445,827.113 1137.555 C 825.401 1135.110,824.000 1134.146,824.000 1135.412 C 824.000 1138.687,829.737 1144.000,833.274 1144.000 C 839.086 1144.000,844.000 1139.851,844.000 1134.945 C 844.000 1131.227,842.176 1129.174,836.500 1126.508 C 827.523 1122.290,825.274 1115.135,832.231 1112.927 C 835.401 1111.921,837.464 1112.562,839.348 1115.137 C 840.806 1117.132,842.000 1117.873,842.000 1116.782 C 842.000 1113.749,837.577 1110.000,834.000 1110.000 C 832.240 1110.000,829.720 1111.080,828.400 1112.400 M904.699 1127.000 C 904.699 1136.900,905.043 1141.175,905.464 1136.500 L 906.230 1128.000 915.000 1128.000 L 923.770 1128.000 924.536 1136.500 C 924.957 1141.175,925.301 1136.900,925.301 1127.000 C 925.301 1117.100,924.957 1112.825,924.536 1117.500 L 923.770 1126.000 915.000 1126.000 L 906.230 1126.000 905.464 1117.500 C 905.043 1112.825,904.699 1117.100,904.699 1127.000 M954.000 1127.000 L 954.000 1144.000 962.500 1143.664 L 971.000 1143.328 963.500 1142.543 C 956.471 1141.808,956.000 1141.335,956.000 1135.012 C 956.000 1129.188,956.752 1128.152,961.500 1127.433 L 967.000 1126.599 961.500 1126.300 C 956.625 1126.034,956.000 1125.219,956.000 1119.127 C 956.000 1112.871,956.584 1112.181,962.500 1111.447 C 968.900 1110.653,968.884 1110.635,961.500 1110.320 L 954.000 1110.000 954.000 1127.000 M998.407 1127.500 L 998.814 1145.000 999.488 1128.500 L 1000.162 1112.000 1005.681 1112.000 C 1012.268 1112.000,1016.000 1115.255,1016.000 1121.000 C 1016.000 1126.602,1012.303 1130.000,1006.208 1130.000 C 1001.226 1130.000,1001.230 1130.015,1008.000 1137.000 C 1011.732 1140.850,1015.676 1144.000,1016.767 1144.000 C 1017.857 1144.000,1016.162 1141.300,1013.000 1138.000 C 1009.838 1134.700,1008.256 1132.000,1009.483 1132.000 C 1013.252 1132.000,1018.000 1125.961,1018.000 1121.167 C 1018.000 1114.935,1011.964 1110.000,1004.343 1110.000 L 998.000 1110.000 998.407 1127.500 M1044.000 1127.000 L 1044.000 1144.000 1052.500 1143.664 L 1061.000 1143.328 1053.500 1142.543 C 1046.471 1141.808,1046.000 1141.335,1046.000 1135.012 C 1046.000 1129.188,1046.752 1128.152,1051.500 1127.433 L 1057.000 1126.599 1051.500 1126.300 C 1046.625 1126.034,1046.000 1125.219,1046.000 1119.127 C 1046.000 1112.871,1046.584 1112.181,1052.500 1111.447 C 1058.900 1110.653,1058.884 1110.635,1051.500 1110.320 L 1044.000 1110.000 1044.000 1127.000 M368.945 1125.397 C 361.872 1141.336,360.674 1144.985,364.971 1137.500 C 367.574 1132.964,369.510 1132.000,376.013 1132.000 C 382.751 1132.000,384.349 1132.873,387.000 1138.000 C 393.123 1149.841,391.761 1143.698,384.950 1128.750 C 381.127 1120.363,378.000 1113.163,378.000 1112.750 C 378.000 1112.338,377.300 1112.000,376.445 1112.000 C 375.590 1112.000,372.215 1118.029,368.945 1125.397 M750.730 1116.145 C 761.332 1124.484,754.496 1142.000,740.639 1142.000 C 734.280 1142.000,726.000 1133.516,726.000 1127.000 C 726.000 1120.484,734.280 1112.000,740.639 1112.000 C 743.291 1112.000,747.832 1113.865,750.730 1116.145 M381.929 1127.500 C 381.971 1128.960,379.504 1130.000,376.000 1130.000 C 369.026 1130.000,368.963 1129.807,373.237 1121.541 L 376.474 1115.281 379.166 1120.141 C 380.647 1122.813,381.890 1126.125,381.929 1127.500 " stroke="none" fill="black" fill-rule="evenodd"/></svg>